<?xml version="1.0" standalone="no"?>
<!DOCTYPE svg PUBLIC "-//W3C//DTD SVG 20010904//EN"
 "http://www.w3.org/TR/2001/REC-SVG-20010904/DTD/svg10.dtd">
<svg version="1.0" xmlns="http://www.w3.org/2000/svg"
 width="466.000000pt" height="245.000000pt" viewBox="0 0 466.000000 245.000000"
 preserveAspectRatio="xMidYMid meet">

<g transform="translate(0.000000,245.000000) scale(0.100000,-0.100000)"
fill="#000000" stroke="none">
<path d="M2895 2173 c-16 -2 -59 -11 -95 -19 -90 -22 -87 -21 -350 -40 -250
-18 -513 -15 -788 7 -79 6 -145 9 -148 6 -11 -11 -34 -194 -34 -273 0 -161 42
-279 130 -363 l51 -49 -24 -27 -23 -28 -56 55 c-63 61 -111 148 -133 240 -18
78 -19 264 -1 372 l13 79 -91 -7 c-50 -4 -143 -11 -206 -16 -201 -16 -574 -8
-853 19 l-77 7 -15 -49 c-38 -127 -44 -378 -13 -485 11 -38 19 -46 52 -57 89
-31 132 -95 172 -256 62 -255 175 -380 399 -444 50 -14 122 -28 160 -33 l70
-7 -3 -30 c-2 -16 -6 -32 -8 -34 -3 -3 -52 2 -110 10 l-106 15 -11 -26 c-16
-37 -15 -361 2 -436 7 -34 16 -67 21 -73 5 -9 42 -8 156 5 257 30 773 24 1090
-12 l52 -6 17 73 c22 98 31 295 16 388 -6 41 -14 77 -16 81 -3 4 -28 1 -56 -7
-28 -8 -52 -13 -55 -11 -2 3 -6 18 -10 34 -5 28 -4 29 63 49 37 11 72 20 76
20 5 0 21 -32 36 -72 120 -308 372 -491 784 -570 75 -14 146 -18 382 -18 274
1 296 2 410 27 146 31 260 74 349 131 225 145 347 379 374 715 l7 90 -90 6
c-118 9 -855 9 -962 0 l-83 -7 0 -53 0 -54 -65 0 -66 0 3 153 3 152 63 3 62 3
0 -46 c0 -60 7 -62 223 -76 250 -17 869 -1 892 23 28 28 40 595 17 774 -8 55
-17 107 -22 114 -6 10 -82 10 -396 0 -214 -6 -390 -12 -391 -13 0 -1 3 -36 7
-77 13 -107 12 -208 -2 -255 l-12 -40 -7 70 c-5 48 -18 89 -41 134 -80 156
-250 223 -562 220 -77 -1 -154 -4 -171 -6z"/>
</g>
</svg>
