<?xml version="1.0" encoding="UTF-8"?>
<svg version="1.1" xmlns="http://www.w3.org/2000/svg" width="4400" height="4400">
<path d="M0 0 C1.23918182 0.00060425 2.47836365 0.0012085 3.75509644 0.00183105 C24.99864065 0.02975777 46.13386002 0.49918078 67.3125 2.1875 C68.10988586 2.25066406 68.90727173 2.31382813 69.7288208 2.37890625 C122.79851088 6.64423999 173.27675409 18.34747938 224.3125 33.1875 C225.00970154 33.3896814 225.70690308 33.59186279 226.42523193 33.8001709 C260.41518761 43.67788126 293.4121278 56.56477145 326.5 69.0625 C398.4849526 96.25183755 470.73888716 120.97026893 545.3125 140.1875 C545.95400403 140.36952721 546.59550806 140.55155441 547.25645161 140.7390976 C549.55644806 141.24070249 551.6467866 141.32407733 554.0007782 141.33898926 C554.9388028 141.34733292 555.87682739 141.35567657 556.84327698 141.36427307 C557.86525681 141.36845749 558.88723663 141.37264191 559.94018555 141.37695312 C561.56262177 141.38939308 561.56262177 141.38939308 563.21783447 141.40208435 C565.56574227 141.41947811 567.91366736 141.43464676 570.2616024 141.44786072 C573.97138904 141.46887559 577.68108826 141.49589722 581.39082336 141.52453613 C589.93087908 141.58930934 598.47098753 141.64521994 607.0111084 141.70052338 C615.46783601 141.75536759 623.92452044 141.81399517 632.38117409 141.87937927 C636.04680098 141.90605051 639.71243212 141.92680319 643.37809753 141.9473877 C645.60973323 141.96398137 647.8413669 141.98085237 650.07299805 141.99804688 C651.10105057 142.00223129 652.12910309 142.00641571 653.18830872 142.01072693 C654.11787384 142.01907059 655.04743896 142.02741425 656.00517273 142.03601074 C657.22382538 142.04374134 657.22382538 142.04374134 658.46709728 142.05162811 C660.3125 142.1875 660.3125 142.1875 661.3125 143.1875 C661.41136435 145.27612303 661.43790688 147.36816529 661.4381165 149.45912686 C661.43954809 150.1266227 661.44097968 150.79411854 661.44245464 151.48184153 C661.44607592 153.75268636 661.44247738 156.02346525 661.43899983 158.29430956 C661.44011545 159.93461927 661.44166969 161.57492874 661.44362573 163.21523767 C661.44776368 167.77275584 661.44558738 172.33025343 661.44247987 176.88777163 C661.44019159 181.84558005 661.44367757 186.80338482 661.44644669 191.76119253 C661.45051592 200.50061396 661.45081947 209.24002944 661.44874074 217.97945147 C661.44564582 231.06273321 661.44826917 244.14600946 661.45203945 257.22929081 C661.45829069 279.52156991 661.45975036 301.81384712 661.45862198 324.10612679 C661.4574913 346.71214993 661.45851732 369.31817144 661.46219444 391.92419434 C661.46242643 393.36385037 661.46265841 394.80350641 661.46289036 396.24316244 C661.46382986 402.0475622 661.46478615 407.85196196 661.46576155 413.65636172 C661.46850742 430.02062139 661.47088667 446.3848811 661.47301352 462.74914086 C661.47315985 463.87414878 661.47315985 463.87414878 661.47330913 465.02188413 C661.47881908 507.71297642 661.47911886 550.4040688 661.47952999 593.09516138 C661.47959323 599.62279332 661.47965975 606.15042526 661.47973054 612.6780572 C661.47974823 614.31408231 661.47976561 615.95010742 661.47978266 617.58613252 C661.48017015 654.275555 661.48234767 690.96497729 661.48491292 727.65439967 C661.48548447 735.83836426 661.48603844 744.02232886 661.48659355 752.20629345 C661.48664867 753.01864201 661.48670379 753.83099058 661.48676058 754.66795576 C661.48709508 759.59898243 661.48742885 764.53000911 661.48776215 769.46103578 C661.48792923 771.93115667 661.48809674 774.40127756 661.48826428 776.87139845 C661.49086635 815.27973681 661.49309658 853.6880752 661.49494648 892.09641361 C661.49498685 892.93332985 661.49502722 893.77024609 661.49506881 894.63252343 C661.49763254 947.97632382 661.49853125 1001.3201241 661.49826848 1054.66392455 C661.49825573 1057.28765906 661.49824376 1059.91139356 661.49823207 1062.53512807 C661.49814973 1080.96868994 661.49804702 1099.4022518 661.49793919 1117.83581367 C661.49790842 1123.12131294 661.49787836 1128.40681221 661.49784838 1133.69231147 C661.49782328 1138.10111259 661.49779749 1142.5099137 661.49777026 1146.91871482 C661.49725877 1230.20048972 661.49867801 1313.48226365 661.50811768 1396.76403809 C661.50821703 1397.64094682 661.50831639 1398.51785556 661.50841876 1399.42133729 C661.51153011 1426.82003543 661.5148966 1454.21873354 661.51831055 1481.61743164 C661.52181185 1509.72967497 661.52528225 1537.84191829 661.52857494 1565.95416164 C661.52872723 1567.25247905 661.52872723 1567.25247905 661.5288826 1568.57702509 C661.53522961 1622.76528111 661.5391532 1676.95353687 661.54043293 1731.14179325 C661.54045296 1731.97844165 661.54047299 1732.81509005 661.54049362 1733.67709144 C661.54136885 1770.41688161 661.54168875 1807.15667176 661.54140273 1843.89646194 C661.54128845 1858.67600885 661.54123238 1873.45555576 661.54119941 1888.23510268 C661.54119301 1890.68570332 661.54118394 1893.13630396 661.54117426 1895.58690461 C661.54103769 1933.09438841 661.54238863 1970.60187133 661.54821944 2008.10935473 C661.54834511 2008.91889241 661.54847079 2009.72843008 661.54860027 2010.5624992 C661.55062944 2023.58595176 661.55277341 2036.6094043 661.55492707 2049.63285685 C661.56103272 2086.5847501 661.56608192 2123.53664217 661.5639559 2160.488536 C661.56391319 2161.23760515 661.56387048 2161.98667431 661.56382647 2162.75844253 C661.56287333 2179.09685834 661.56135775 2195.43527406 661.55928975 2211.77368977 C661.55847338 2218.28892804 661.55772977 2224.80416632 661.55700874 2231.3194046 C661.55692809 2232.03012658 661.55684744 2232.74084855 661.55676434 2233.47310756 C661.55423656 2256.05190976 661.55786772 2278.63070537 661.56502656 2301.20950642 C661.57223758 2324.03682368 661.57259985 2346.86413197 661.56448779 2369.69144985 C661.5600822 2382.69447094 661.56123511 2395.69746383 661.57035458 2408.70048263 C661.57585621 2417.3136647 661.57423133 2425.92682551 661.5665718 2434.54000592 C661.56242318 2439.43711531 661.56151773 2444.33416879 661.56932249 2449.23127497 C661.57633001 2453.66400642 661.57433339 2458.09663396 661.5647888 2462.52935984 C661.56298132 2464.12902283 661.56459853 2465.72869388 661.56987492 2467.32834919 C661.57650742 2469.48260582 661.571042 2471.63648857 661.562315 2473.79072931 C661.56235104 2474.98717635 661.56238708 2476.18362339 661.56242421 2477.41632641 C661.3125 2480.1875 661.3125 2480.1875 659.3125 2482.1875 C656.81454882 2482.39485263 654.45494137 2482.46953282 651.95703125 2482.4375 C651.20130325 2482.43218262 650.44557526 2482.42686523 649.66694641 2482.42138672 C642.23878195 2482.30155085 634.90624195 2481.54929648 627.5246582 2480.76318359 C581.85843636 2475.91612363 536.38052897 2477.82228311 490.6689415 2480.74018097 C487.57285056 2480.93684254 484.47647745 2481.12847432 481.3800354 2481.31951904 C476.47073779 2481.62512049 471.56322683 2481.95148155 466.65638924 2482.29426956 C464.83287419 2482.41960929 463.00897562 2482.53950477 461.18472099 2482.6535759 C458.66234844 2482.81324951 456.14249748 2482.99499089 453.62207031 2483.18261719 C452.89404111 2483.22433737 452.16601191 2483.26605755 451.41592121 2483.30904198 C446.68501734 2483.69299808 443.21579116 2484.96131439 439.08050156 2487.2948513 C436.40446214 2488.64596046 433.96925029 2488.73396905 431 2488.8046875 C429.18036743 2488.87345093 429.18036743 2488.87345093 427.32397461 2488.94360352 C426.35208694 2488.97105148 426.35208694 2488.97105148 425.36056519 2488.99905396 C410.90036454 2489.44700969 396.59276435 2490.91971443 382.25 2492.75 C381.26747253 2492.87482758 380.28494507 2492.99965515 379.27264404 2493.12826538 C366.23213698 2494.79693907 353.21315758 2496.61368344 340.19921875 2498.4765625 C339.1680789 2498.62415197 339.1680789 2498.62415197 338.11610794 2498.77472305 C336.72284716 2498.97418084 335.32958939 2499.17365968 333.93633461 2499.37315941 C308.76560086 2502.97716358 283.70218504 2506.52856973 258.3125 2508.1875 C257.63859663 2508.23198147 256.96469326 2508.27646294 256.27036858 2508.32229233 C229.2240659 2510.09232698 202.24038372 2510.50516053 175.14111328 2510.44824219 C169.65034974 2510.43682031 164.1597796 2510.44364809 158.66902256 2510.45512772 C117.14771638 2510.52862177 76.46027618 2509.49274875 35.81982422 2500.20947266 C31.5207279 2499.22974869 27.21474307 2498.28248143 22.90835571 2497.33540344 C-51.23097706 2481.0013588 -122.34041491 2452.62145241 -188.13427734 2414.64550781 C-191.21957168 2412.88366255 -194.33663197 2411.18576196 -197.45947266 2409.49169922 C-226.40910286 2393.7276954 -254.25467631 2374.86646751 -280.6875 2355.1875 C-281.2448584 2354.775 -281.8022168 2354.3625 -282.37646484 2353.9375 C-285.83250219 2351.37887509 -289.26504749 2348.79082358 -292.6875 2346.1875 C-293.69683594 2345.42308594 -294.70617188 2344.65867187 -295.74609375 2343.87109375 C-308.50264384 2334.16643463 -320.88081463 2323.98660675 -333.06347656 2313.57324219 C-334.75464221 2312.13020908 -336.45124619 2310.69375183 -338.1484375 2309.2578125 C-345.52183941 2303.00183986 -352.69847106 2296.57676667 -359.76072693 2289.97149658 C-361.24819717 2288.5942499 -362.74565161 2287.22778154 -364.24720764 2285.86590576 C-371.46157973 2279.31317987 -378.44856819 2272.57506731 -385.33203125 2265.67578125 C-386.39655828 2264.61193088 -387.46123344 2263.54822873 -388.52604675 2262.48466492 C-390.73342398 2260.27874511 -392.9390259 2258.07107051 -395.14331055 2255.86206055 C-397.94805976 2253.05158694 -400.75731524 2250.24566716 -403.56790638 2247.44103718 C-405.75834591 2245.25423264 -407.94637195 2243.06502568 -410.13370323 2240.87511253 C-411.16824992 2239.83990615 -412.20351935 2238.80542146 -413.23957253 2237.77172279 C-418.41793359 2232.6025645 -423.50498359 2227.39947802 -428.26933289 2221.84147644 C-429.99661164 2219.82699004 -431.7963976 2217.89138337 -433.625 2215.96875 C-434.62660156 2214.91107422 -434.62660156 2214.91107422 -435.6484375 2213.83203125 C-436.32132813 2213.12433594 -436.99421875 2212.41664063 -437.6875 2211.6875 C-444.8992091 2204.10277146 -451.77636833 2196.27743791 -458.5625 2188.3125 C-462.11151333 2184.15543311 -465.69424022 2180.04174498 -469.375 2176 C-473.17257249 2171.81380699 -476.75815944 2167.48730986 -480.3125 2163.09375 C-482.85415273 2159.98356968 -485.4535466 2156.92857786 -488.0625 2153.875 C-492.30901016 2148.8891949 -496.39705323 2143.79974176 -500.41918945 2138.63183594 C-503.96838896 2134.07852467 -507.5961184 2129.59458972 -511.25 2125.125 C-516.35092999 2118.871481 -521.33281814 2112.54787971 -526.21484375 2106.12109375 C-527.93908513 2103.8571694 -529.67267594 2101.60053555 -531.40625 2099.34375 C-539.48101105 2088.8143397 -547.38953008 2078.18761993 -555.10644531 2067.39355469 C-557.26222518 2064.38558265 -559.43481239 2061.38991379 -561.60668945 2058.39355469 C-583.8828004 2027.64186506 -605.28509079 1996.21555273 -625.6875 1964.1875 C-626.13399902 1963.48818359 -626.58049805 1962.78886719 -627.04052734 1962.06835938 C-641.71741952 1939.0533645 -655.86054174 1915.72154732 -669.6875 1892.1875 C-670.29335938 1891.15882812 -670.89921875 1890.13015625 -671.5234375 1889.0703125 C-684.69663179 1866.69313967 -697.33357844 1844.02597452 -709.6875 1821.1875 C-710.23422363 1820.18041992 -710.78094727 1819.17333984 -711.34423828 1818.13574219 C-732.96009485 1778.28706076 -753.19831952 1737.81499391 -771.76660156 1696.45751953 C-773.03795236 1693.62731398 -774.31596831 1690.80028238 -775.60058594 1687.97607422 C-792.85800849 1650.03455806 -808.33235153 1611.31541256 -822.6875 1572.1875 C-822.9878717 1571.36910645 -823.28824341 1570.55071289 -823.59771729 1569.70751953 C-857.04016006 1478.44869722 -883.6345026 1384.24588197 -915.6875 1152.1875 C-915.78673767 1151.03451416 -915.88597534 1149.88152832 -915.98822021 1148.69360352 C-919.15167329 1111.82050183 -921.53368585 1074.8191571 -919.05914307 1037.82357788 C-918.4733848 1028.60574098 -918.43417842 1019.37073135 -918.29989624 1010.13766479 C-917.90344796 984.21431198 -916.50959418 958.73083756 -913.21508789 933.0078125 C-912.02814331 923.63871295 -911.17488464 914.28046862 -910.47964478 904.86312866 C-903.9765472 817.78431301 -880.40812206 730.79959575 -778.31884766 485.04003906 C-776.61469366 482.06019242 -774.94932401 479.06134778 -773.29296875 476.0546875 C-761.37700027 454.43165448 -748.17144711 433.79122038 -734.5 413.25 C-733.95468628 412.43005554 -733.40937256 411.61011108 -732.84753418 410.76531982 C-722.81755686 395.70299181 -712.61904126 380.77058248 -701.5625 366.4375 C-700.88147217 365.54973877 -700.20044434 364.66197754 -699.4987793 363.74731445 C-698.1608286 362.00386642 -696.82162193 360.26138128 -695.48095703 358.52001953 C-693.94857308 356.52704427 -692.42296434 354.52929552 -690.90234375 352.52734375 C-684.82421344 344.55165081 -678.52775784 336.7661878 -672.17578125 329.0078125 C-670.87340621 327.41488135 -669.57683968 325.8172048 -668.28125 324.21875 C-659.78478762 313.75209344 -651.03790389 303.53315076 -641.84545898 293.67163086 C-639.15384355 290.78390501 -636.51085917 287.86849944 -633.9375 284.875 C-631.07332465 281.55895232 -628.02659472 278.48041904 -624.875 275.4375 C-623.02962149 273.53939639 -621.31236056 271.60510065 -619.58984375 269.59765625 C-615.04767087 264.37046609 -610.15510803 259.50919073 -605.25 254.625 C-604.34701172 253.71814453 -603.44402344 252.81128906 -602.51367188 251.87695312 C-597.92206147 247.29199241 -593.27189302 242.85467272 -588.34741211 238.62915039 C-586.36215085 236.90493099 -584.51350932 235.07872394 -582.6875 233.1875 C-579.5163397 229.97315269 -576.23167247 226.96999037 -572.80859375 224.02734375 C-570.46258942 221.99241181 -568.1701355 219.90459033 -565.875 217.8125 C-561.55489209 213.91386603 -557.10678619 210.21246142 -552.58203125 206.5546875 C-550.07408434 204.503654 -547.60670235 202.41339433 -545.15063477 200.30078125 C-537.62360543 193.8394543 -529.79078492 187.82662714 -521.87695312 181.84912109 C-519.71606712 180.20918017 -517.5671628 178.55481034 -515.421875 176.89453125 C-446.13783585 123.31796675 -367.64321357 81.11789955 -271.25 45 C-270.14224716 44.59719315 -270.14224716 44.59719315 -269.01211548 44.18624878 C-245.42586865 35.6402098 -245.42586865 35.6402098 -234.25 34.3125 C-228.58567791 33.54631151 -223.86133725 31.75263538 -218.62524414 29.50927734 C-208.66050155 25.36205725 -197.99850883 23.49468319 -187.3125 22.3125 C-181.34552689 21.6038033 -175.96336476 20.14960019 -170.25 18.3125 C-157.51083919 14.23512349 -144.2423419 11.91017194 -130.91796875 10.76953125 C-127.89050341 10.45970194 -126.19203318 9.97237815 -123.3046875 8.71875 C-118.51124005 6.68955842 -113.96255577 6.22218086 -108.8125 5.6875 C-107.71043213 5.56713379 -106.60836426 5.44676758 -105.47290039 5.32275391 C-94.70756992 4.19950352 -83.91812413 3.36627257 -73.125 2.5625 C-71.88233368 2.46884155 -71.88233368 2.46884155 -70.61456299 2.37329102 C-47.09035982 0.6207149 -23.58635239 -0.02150604 0 0 Z " fill="#94D20D" transform="translate(1360.6875,1157.8125)"/>
<path d="M0 0 C1.40745441 -0.00356656 2.81490528 -0.00888714 4.22234723 -0.01580173 C8.10276931 -0.02975298 11.9827838 -0.01870304 15.86318718 -0.00368956 C20.08082715 0.00823732 24.29841478 -0.00300451 28.51605457 -0.0113312 C35.9137705 -0.02271697 43.3113638 -0.01918238 50.70907497 -0.00596046 C61.71248119 0.01365118 72.71579738 0.01041536 83.71921399 0.00253894 C102.24328149 -0.0100294 120.76729814 -0.0036445 139.2913599 0.01372719 C157.67687673 0.03096393 176.06237073 0.04076736 194.447896 0.04039192 C195.59207148 0.04037663 196.73624695 0.04036134 197.91509441 0.04034559 C202.56036114 0.04026376 207.20562786 0.04013253 211.85089458 0.03993396 C255.48344891 0.03811973 299.11596859 0.05803122 342.74851088 0.08879329 C381.39817429 0.11594273 420.04781304 0.1285201 458.69748592 0.12717247 C461.17133884 0.12709165 463.64519175 0.12701093 466.11904467 0.12693031 C467.34213302 0.12688961 468.56522137 0.12684891 469.82537301 0.12680697 C475.98402298 0.12660534 482.14267296 0.12642418 488.30132294 0.12626648 C489.516669 0.12623305 490.73201506 0.12619963 491.98418979 0.12616519 C524.35868101 0.12543127 556.73316919 0.13455256 589.10765785 0.14691961 C590.2628666 0.14736015 591.41807535 0.1478007 592.60829043 0.14825459 C597.2526041 0.15003084 601.89691776 0.1518078 606.54123141 0.1536365 C622.59164688 0.15991536 638.64205991 0.16296974 654.69247652 0.16385948 C675.43673199 0.16506436 696.18096726 0.17325587 716.92521418 0.1927224 C726.90725723 0.20193243 736.8892779 0.20829477 746.87132549 0.20553398 C801.68642388 0.1927944 856.47495582 0.56042833 911.18845272 4.31027794 C912.45282162 4.39392601 913.71719051 4.47757408 915.01987362 4.56375694 C1012.27102959 11.00000112 1110.35485417 21.86865747 1357.43845272 114.49777794 C1358.29503475 115.01146935 1359.15161678 115.52516075 1360.03415585 116.05441856 C1387.72468817 132.67745252 1414.18974991 151.5061976 1438.7436285 172.50632286 C1442.19882545 175.46118865 1445.70561102 178.33826112 1449.25095272 181.18527794 C1453.17962694 184.37946089 1456.80934544 187.70832062 1460.29392147 191.38059044 C1462.05957177 193.12372789 1463.84624264 194.70395215 1465.73532772 196.30637169 C1471.94135608 201.69606256 1477.67493242 207.58557923 1483.47482967 213.4037838 C1485.4960954 215.43040774 1487.52264846 217.45163341 1489.54978085 219.47238731 C1501.2811712 231.19836077 1501.2811712 231.19836077 1506.13938046 236.9843502 C1507.42039843 238.57101787 1507.42039843 238.57101787 1509.17307186 239.8881588 C1509.59064754 240.41933311 1510.00822323 240.95050743 1510.43845272 241.49777794 C1510.01753902 244.09837914 1510.01753902 244.09837914 1509.43845272 246.49777794 C1502.26938583 248.3517297 1495.09998537 250.20438663 1487.93031883 252.05601788 C1483.72022969 253.14354695 1479.51066477 254.23308021 1475.30144596 255.3239727 C1460.98971773 259.03221043 1446.67270934 262.70756001 1432.31735897 266.24387169 C1428.86777306 267.09975066 1425.41842939 267.9566001 1421.96912289 268.81360435 C1419.79901861 269.34885812 1417.62745508 269.87823315 1415.45441341 270.40143394 C1400.06990981 273.86985415 1400.06990981 273.86985415 1386.43845272 281.49777794 C1385.36595272 282.26090294 1384.29345272 283.02402794 1383.18845272 283.81027794 C1374.81739267 291.99108663 1369.42063549 303.33639065 1369.19650936 315.07834435 C1369.05222149 353.93113222 1388.47937873 395.9159284 1411.43845272 426.49777794 C1412.11690243 427.4072921 1412.11690243 427.4072921 1412.80905819 428.33518028 C1419.20121438 436.84217126 1426.06968335 444.82545473 1433.43845272 452.49777794 C1433.92459042 453.0058297 1434.41072811 453.51388145 1434.91159725 454.03732872 C1441.67987867 461.07008222 1448.68666771 467.54038761 1456.43845272 473.49777794 C1456.98308163 473.91881798 1457.52771053 474.33985802 1458.08884335 474.77365685 C1499.9015773 506.9075172 1551.77264176 527.35974993 1604.43845272 531.49777794 C1605.46422421 531.58019737 1605.46422421 531.58019737 1606.51071835 531.66428185 C1622.73591125 532.92467149 1638.59216881 532.65410994 1654.79782772 531.20944786 C1657.67690708 530.95365624 1660.55660234 530.71986941 1663.43845272 530.49777794 C1664.16129452 530.43074669 1664.88413631 530.36371544 1665.62888241 530.29465294 C1667.49314022 530.18527794 1667.49314022 530.18527794 1670.43845272 530.49777794 C1673.53831315 533.6543193 1674.50226971 537.40871673 1675.60251522 541.57590294 C1675.89231258 542.63476456 1675.89231258 542.63476456 1676.18796444 543.71501732 C1676.82410846 546.05647055 1677.44498277 548.40159806 1678.06345272 550.74777794 C1678.28088131 551.56398613 1678.4983099 552.38019432 1678.72232723 553.22113609 C1694.35594616 612.0175707 1704.43676707 671.88558915 1709.43845272 732.49777794 C1709.50010616 733.2337722 1709.56175961 733.96976646 1709.62528133 734.72806358 C1713.35905556 779.83087129 1713.15524587 826.40320331 1709.43845272 871.49777794 C1709.37764523 872.26114464 1709.31683773 873.02451134 1709.25418758 873.81101036 C1705.80558984 917.09716314 1699.47806606 960.03156001 1690.43845272 1002.49777794 C1690.27945492 1003.2496035 1690.12045712 1004.00142906 1689.9566412 1004.77603722 C1677.22348565 1064.88734721 1658.80649663 1124.07907575 1634.43845272 1180.49777794 C1633.95505428 1181.62538536 1633.47165585 1182.75299278 1632.97360897 1183.91477013 C1620.10250383 1213.79655998 1605.81054163 1243.3143145 1588.87595272 1271.1135006 C1587.56985874 1273.27982427 1586.30623861 1275.46267461 1585.06345272 1277.66574669 C1570.1926132 1303.93079052 1552.3603273 1329.01444636 1533.43845272 1352.49777794 C1532.31890194 1353.89189903 1532.31890194 1353.89189903 1531.17673397 1355.31418419 C1527.06079464 1360.39075568 1522.86178011 1365.39611228 1518.62595272 1370.37277794 C1518.1890411 1370.88904747 1517.75212948 1371.405317 1517.30197811 1371.93723106 C1507.89458712 1382.9238681 1497.82224298 1393.27887179 1487.58249569 1403.48410606 C1485.67262278 1405.38856299 1483.76823123 1407.29838613 1481.86423397 1409.20871544 C1475.89065602 1415.18554298 1469.89750258 1421.04102886 1463.43845272 1426.49777794 C1461.830769 1427.95223311 1460.22605558 1429.40998689 1458.62595272 1430.87277794 C1454.35964683 1434.71827976 1449.98675972 1438.3950906 1445.52048397 1442.00559044 C1443.29925903 1443.80171403 1441.08944895 1445.60786329 1438.88767147 1447.42746544 C1369.47609601 1504.61450131 1289.57295084 1547.63631026 905.87595272 1625.18527794 C904.15911785 1625.27668556 904.15911785 1625.27668556 902.40759945 1625.3699398 C873.54120958 1626.88409619 844.65215923 1627.64522688 815.75095272 1628.06809044 C814.68878096 1628.08400978 814.68878096 1628.08400978 813.60515118 1628.10025072 C786.40310298 1628.50615839 759.20554702 1628.5485575 732.00095272 1628.48996544 C730.04153098 1628.48606424 728.08210919 1628.48219106 726.12268734 1628.47834587 C708.11705624 1628.44222039 690.11146887 1628.39554729 672.10593319 1628.32639122 C663.07471242 1628.2918027 654.04352889 1628.26806038 645.01224899 1628.25618279 C639.38163 1628.24818901 633.75127057 1628.22723857 628.12073517 1628.19597793 C624.64463318 1628.17989066 621.16860332 1628.17655876 617.69246769 1628.17674828 C616.09819605 1628.17434701 614.50392169 1628.16686456 612.90970325 1628.15361977 C594.83424062 1627.93710216 594.83424062 1627.93710216 579.08689022 1635.77512169 C570.49277787 1644.75617274 570.13523601 1655.5526813 570.18511963 1667.43504333 C570.18202236 1668.60409773 570.17892508 1669.77315212 570.17573395 1670.9776324 C570.16916497 1674.20982751 570.17147687 1677.4418729 570.17758521 1680.67406428 C570.18201241 1684.19527368 570.17477939 1687.71646262 570.1690287 1691.23766744 C570.16053736 1697.40481271 570.15937599 1703.57192518 570.16304111 1709.73907471 C570.16843803 1718.90977886 570.16233107 1728.08045016 570.15375233 1737.25115062 C570.139583 1752.68081996 570.13423823 1768.11048014 570.13349247 1783.54015541 C570.13231373 1804.60938437 570.11711166 1825.67858723 570.0979973 1846.74780671 C570.08909845 1856.56461179 570.0808289 1866.3814174 570.0726757 1876.19822311 C570.07144908 1877.6722685 570.07144908 1877.6722685 570.07019767 1879.17609257 C570.05086334 1902.56098786 570.03732014 1925.94588578 570.02512264 1949.33078575 C570.02431745 1950.86540874 570.02431745 1950.86540874 570.023496 1952.43103422 C570.01099666 1976.30877056 570.00021604 2000.18650723 569.99143124 2024.06424522 C569.98836109 2032.35133426 569.98526881 2040.63842329 569.98215389 2048.92551231 C569.98177208 2049.94834896 569.98139027 2050.9711856 569.98099688 2052.02501729 C569.97223553 2075.37365528 569.96108322 2098.72228772 569.94102287 2122.07091904 C569.94018021 2123.05198757 569.93933754 2124.0330561 569.93846934 2125.04385397 C569.92998684 2134.83759625 569.92099195 2144.63133794 569.91127757 2154.42507908 C569.90651598 2159.2430881 569.90190052 2164.06109726 569.89738941 2168.87910652 C569.89605759 2170.30143651 569.89605759 2170.30143651 569.89469886 2171.75250044 C569.88075893 2187.02381402 569.87812801 2202.29510985 569.88006907 2217.56642884 C569.88186232 2232.90548363 569.87323414 2248.24450262 569.85376067 2263.58354546 C569.84253846 2272.70014801 569.83977424 2281.81666385 569.84895702 2290.93326914 C569.8542766 2297.0200071 569.84879234 2303.10667292 569.83448028 2309.19339623 C569.82663837 2312.66316828 569.82356549 2316.13276548 569.83369953 2319.60253556 C569.8421142 2323.33925994 569.83220884 2327.07549982 569.81762695 2330.81219482 C569.82447534 2331.89050556 569.83132373 2332.96881629 569.83837965 2334.07980311 C569.7669212 2343.40673676 567.72437509 2349.84151139 561.25876522 2356.73996544 C554.39840877 2363.36477317 546.75311473 2364.76034857 537.52324581 2364.90717125 C536.74384856 2364.92621993 535.96445131 2364.94526862 535.16143596 2364.96489453 C532.4893144 2365.02567406 529.81720584 2365.07085588 527.14475155 2365.11447716 C526.17593788 2365.13294189 525.20712421 2365.15140663 524.20895255 2365.1704309 C491.15667692 2365.79354835 458.08956504 2365.6443117 425.03294994 2365.6330793 C418.02724068 2365.63075823 411.02153385 2365.63052211 404.01582432 2365.6315937 C403.00188948 2365.63174694 401.98795464 2365.63190017 400.9432945 2365.63205805 C398.8796874 2365.63237796 396.81608031 2365.63270218 394.75247321 2365.63303064 C375.50238832 2365.63586535 356.25230823 2365.63263653 337.00222412 2365.62723027 C320.80949638 2365.62282073 304.61677601 2365.62355875 288.42404842 2365.62814903 C233.58124066 2365.64309451 178.73865906 2365.61973473 123.89594841 2365.50868988 C120.28939748 2365.50140396 116.68284618 2365.49445376 113.07629395 2365.48784256 C93.73464034 2365.45235897 74.39317674 2365.4056396 55.051745 2365.30341947 C53.61575007 2365.29583956 52.17975511 2365.2882672 50.74376011 2365.28070259 C50.04228266 2365.27699585 49.34080522 2365.27328911 48.61807088 2365.26947004 C43.78295689 2365.24485254 38.94787804 2365.23007665 34.11271381 2365.21994972 C27.80723445 2365.20583789 21.50214755 2365.17307304 15.196841 2365.12460947 C12.94213621 2365.11029876 10.68737808 2365.10253773 8.43262792 2365.10207129 C5.39133994 2365.10030662 2.3512043 2365.0741436 -0.68988895 2365.04169273 C-1.55325802 2365.04691952 -2.41662708 2365.0521463 -3.30615884 2365.05753148 C-10.51045452 2364.93627221 -17.31584199 2363.11410768 -22.99904728 2358.53293419 C-31.66358696 2347.59395285 -30.70930623 2335.9834545 -30.69034845 2322.54880106 C-30.69171807 2320.9147244 -30.69352489 2319.28064806 -30.69572726 2317.64657231 C-30.70052317 2313.14373112 -30.69909349 2308.64090999 -30.69666956 2304.13806769 C-30.6951277 2299.22577042 -30.69938403 2294.31347759 -30.70289633 2289.40118182 C-30.70827245 2280.75441197 -30.70991306 2272.10764757 -30.70914558 2263.46087618 C-30.70801092 2250.51628716 -30.71258882 2237.57170447 -30.71827642 2224.62711687 C-30.72779231 2202.56770845 -30.73250475 2180.50830084 -30.73458576 2158.44889069 C-30.7367063 2136.08649094 -30.74096513 2113.72409315 -30.74782848 2091.36169434 C-30.74826357 2089.93627414 -30.74869854 2088.51085395 -30.74913337 2087.08543376 C-30.75089005 2081.33819943 -30.75266035 2075.5909651 -30.75444639 2069.84373077 C-30.7758233 2000.96041437 -30.78672118 1932.0770976 -30.79560863 1863.19377863 C-30.79863202 1839.78896857 -30.80209265 1816.38415861 -30.80588984 1792.97934866 C-30.80608352 1791.78431025 -30.80608352 1791.78431025 -30.8062811 1790.56512965 C-30.80745659 1783.31311974 -30.80863576 1776.06110983 -30.80981837 1768.80909993 C-30.82317269 1686.86975786 -30.8355667 1604.93041549 -30.8505774 1438.00379157 C-30.85110186 1430.20918623 -30.85163917 1422.41458089 -30.85217586 1414.61997555 C-30.85235507 1412.01690656 -30.85253403 1409.41383758 -30.85271295 1406.81076859 C-30.85385003 1390.27408015 -30.8549961 1373.73739171 -30.85616115 1357.20070327 C-30.85646846 1352.83776215 -30.8567744 1348.47482103 -30.85707705 1344.1118799 C-30.86279765 1261.699434 -30.87204446 1179.28699119 -30.89449406 1096.87454796 C-30.89473028 1096.00681188 -30.89496651 1095.13907581 -30.8952099 1094.24504471 C-30.90283794 1066.26014216 -30.91088671 1038.27523973 -30.91899517 1010.29033732 C-30.92680266 983.34371492 -30.93452604 956.3970925 -30.94188499 929.45046997 C-30.94211908 928.59391945 -30.94235317 927.73736893 -30.94259435 926.85486233 C-30.95722887 873.21939253 -30.96703204 819.58392358 -30.9717598 765.948452 C-30.97187019 764.70605872 -30.97187019 764.70605872 -30.97198281 763.43856658 C-30.97520863 727.06505175 -30.97737715 690.69153694 -30.97836581 654.31802198 C-30.97876663 639.68538827 -30.97930003 625.05275458 -30.97989724 610.42012088 C-30.97999471 607.99393591 -30.98008709 605.56775094 -30.98017862 603.14156597 C-30.98160765 566.02190057 -30.98618152 528.90223912 -31.0000546 491.78257608 C-31.00035367 490.98182342 -31.00065274 490.18107075 -31.00096087 489.35605285 C-31.00578953 476.47461 -31.0108714 463.59316725 -31.01598687 450.71172452 C-31.03050063 414.15140562 -31.04302444 377.59109138 -31.04126871 341.03076911 C-31.04123394 340.28919315 -31.04119918 339.54761719 -31.04116336 338.78356923 C-31.04036366 322.60620674 -31.03845552 306.42884458 -31.03546082 290.25148236 C-31.03428361 283.79987615 -31.03325395 277.34826991 -31.03227139 270.89666367 C-31.0321047 269.84101333 -31.0321047 269.84101333 -31.03193465 268.76403672 C-31.02847853 246.43036152 -31.03733503 224.09671389 -31.0532913 201.76304475 C-31.06938026 179.1706042 -31.07171941 156.57819526 -31.0571987 133.98575119 C-31.04936382 121.12604064 -31.05257103 108.26644526 -31.07183586 95.40674611 C-31.08352912 86.87707951 -31.08083847 78.34749747 -31.06622122 69.81783553 C-31.0583325 64.97556409 -31.05675349 60.13351877 -31.07284025 55.29126255 C-31.08732098 50.89757501 -31.08338635 46.50430285 -31.0647886 42.11063431 C-31.06133072 40.53521125 -31.06454274 38.95975543 -31.07532898 37.38436551 C-31.15236239 25.32819606 -29.90855047 15.43536675 -21.53810978 6.25168419 C-20.88584415 5.67289513 -20.23357853 5.09410606 -19.56154728 4.49777794 C-18.81048759 3.81187029 -18.0594279 3.12596265 -17.28560883 2.41926992 C-12.17397162 -0.90589221 -5.86190758 -0.04474898 0 0 Z M575.90720272 554.19309044 C571.02876177 560.51804586 570.13990498 567.05272532 570.15997982 574.88922691 C570.15418689 575.71151401 570.14839395 576.53380111 570.14242548 577.381006 C570.12544284 580.1366042 570.12254516 582.89203395 570.11960506 585.64768028 C570.11029384 587.64379777 570.10013087 589.63991144 570.08918953 591.63602066 C570.06169489 597.12352515 570.04665941 602.6110037 570.03377366 608.09855938 C570.0178269 614.02143466 569.99076336 619.94426111 569.96529293 625.86710167 C569.91732797 637.48156214 569.88065385 649.09603421 569.84828049 660.71054745 C569.82187962 670.15621857 569.79158684 679.60187037 569.75885677 689.04752159 C569.62299365 728.45397381 569.52287586 767.8604601 569.44298708 807.26706362 C569.43844891 809.49965261 569.43386914 811.73224151 569.42927742 813.9648304 C569.34702847 854.00646329 569.28780684 894.04806554 569.26187068 934.08977561 C569.25555125 943.78846529 569.24547043 953.48714388 569.23262552 963.18582702 C569.21608408 975.69568803 569.2065914 988.20552791 569.20860225 1000.7154026 C569.209463 1006.75380751 569.20726366 1012.79216797 569.19659901 1018.8305645 C569.18698853 1024.36188427 569.18674181 1029.89312273 569.19398332 1035.42444539 C569.19500029 1037.42650898 569.19264167 1039.42857771 569.18657279 1041.43063235 C569.17884643 1044.15307319 569.18350072 1046.87522728 569.19121456 1049.59766197 C569.1860712 1050.37450395 569.18092783 1051.15134593 569.1756286 1051.95172858 C569.23232509 1061.01928037 570.67463201 1068.57192251 577.16110897 1075.27902794 C586.64705373 1084.18035185 595.95745499 1085.1296668 608.55417538 1085.23947716 C610.15236689 1085.26701153 611.75053547 1085.29590629 613.34867954 1085.32606888 C618.37843954 1085.41305297 623.40812624 1085.45856343 628.43845272 1085.49777794 C630.03144768 1085.51206328 631.62444237 1085.52637802 633.21743679 1085.5407238 C643.79940425 1085.62937028 654.38097516 1085.64017705 664.96325159 1085.63210344 C669.48433352 1085.62949622 674.00541388 1085.63193988 678.52649593 1085.63348961 C686.10815459 1085.6352881 693.68980339 1085.63296747 701.27146053 1085.62814903 C709.91926249 1085.62271496 718.56704082 1085.62447243 727.2148422 1085.62997544 C734.76344765 1085.63457868 742.31204616 1085.63512249 749.86065257 1085.63253677 C754.31475529 1085.63101236 758.76884709 1085.63066987 763.22294903 1085.63407326 C781.56474265 1085.64617013 799.89128471 1085.51536021 818.22727108 1085.02560997 C819.02431257 1085.00439654 819.82135406 1084.9831831 820.64254832 1084.96132684 C831.99006374 1084.6524613 843.31376907 1084.22228657 854.62595272 1083.24777794 C855.38631832 1083.18497643 856.14668392 1083.12217491 856.9300909 1083.05747032 C910.45922842 1078.59408951 965.72892714 1069.215604 1013.43845272 1043.49777794 C1014.08008358 1043.15956017 1014.72171444 1042.82134239 1015.38278866 1042.4728756 C1052.22178771 1023.00238643 1081.7656108 993.52141076 1102.43845272 957.49777794 C1102.80809139 956.8616256 1103.17773006 956.22547325 1103.55856991 955.57004356 C1109.64865205 945.00641722 1114.19596253 933.91306806 1118.43845272 922.49777794 C1118.85224178 921.39442101 1118.85224178 921.39442101 1119.27439022 920.26877403 C1145.38406533 849.64662681 1142.91331768 758.02463866 1111.78610897 689.46262169 C1084.87704204 631.90680375 1038.05485264 591.17215723 978.43845272 569.49777794 C977.63858944 569.20064903 976.83872616 568.90352013 976.0146246 568.59738731 C943.72204713 556.7110256 908.82433811 551.2439095 874.75095272 547.24777794 C873.48549618 547.09671593 872.22003963 546.94565392 870.91623592 546.79001427 C845.37285369 543.97444593 819.69959031 543.14092018 794.02093029 542.89587593 C791.5777989 542.87231353 789.13469993 542.84644527 786.69159603 542.82019615 C772.27414821 542.66857917 757.85644116 542.57946458 743.43845272 542.49777794 C742.02991883 542.48954832 740.6213851 542.48128989 739.21285152 542.47300529 C719.69247243 542.3586071 700.17216588 542.27007835 680.65149689 542.22456551 C678.96643795 542.22061643 677.28137904 542.2166555 675.59632015 542.21268272 C674.76298977 542.21072702 673.92965939 542.20877132 673.07107657 542.20675635 C667.18749486 542.19199188 661.30400569 542.16720978 655.42047787 542.1383419 C648.15764927 542.10295945 640.89494982 542.08235854 633.63203287 542.07975048 C629.86396734 542.07803577 626.09620612 542.06985998 622.32821941 542.04446411 C618.17867321 542.01680205 614.02973592 542.02093332 609.88010311 542.02780724 C608.67374801 542.01499403 607.4673929 542.00218082 606.22448158 541.98897934 C594.43871241 542.06122257 583.98039524 545.254913 575.90720272 554.19309044 Z " fill="#92278F" transform="translate(2105.561547279358,1286.5022220611572)"/>
<path d="M0 0 C3.53736331 2.077162 6.58328348 4.2531775 9.6875 6.9375 C74.68770834 60.5280973 167.29024754 87.6667557 247.30358887 108.30328369 C249.95402603 108.98812095 252.60262708 109.67969732 255.25097656 110.37255859 C291.91029959 119.92788967 329.08872053 127.13397391 366.29454041 134.19784069 C369.07966981 134.72686013 371.86423352 135.25882797 374.64880753 135.79076195 C376.57454204 136.15707554 378.50122751 136.51837912 380.427948 136.87947083 C399.44253468 140.50832577 417.89940594 146.18190406 436 153 C436.83901855 153.31582031 437.67803711 153.63164062 438.54248047 153.95703125 C449.27809535 158.03904501 459.66847133 162.54348612 469.84082031 167.87548828 C472.21512236 169.11203681 474.60291725 170.31998524 476.9921875 171.52734375 C489.11232793 177.69965827 500.66440822 184.48719563 512 192 C513.04148193 192.68811768 513.04148193 192.68811768 514.10400391 193.39013672 C528.39089418 202.88396163 542.01200359 213.25214144 555.0078125 224.4453125 C557.87918941 226.89685362 560.80278357 229.26559405 563.75 231.625 C567.98786525 235.06941878 571.86421539 238.71767622 575.63671875 242.6640625 C577.62560311 244.62993497 579.6502739 246.45226913 581.765625 248.27734375 C586.04611924 251.99111906 590.06821988 255.9199748 594.0625 259.9375 C594.73087891 260.60201172 595.39925781 261.26652344 596.08789062 261.95117188 C600.00524559 265.87614075 603.73208282 269.91086351 607.35424805 274.10913086 C609.79154314 276.90943504 612.33578257 279.60499801 614.875 282.3125 C620.17369255 288.01479264 625.12995843 293.92639661 630 300 C630.97110966 301.18096097 631.94386799 302.36056749 632.91796875 303.5390625 C688.539492 371.01181152 732.45261907 449.60752233 839.49267578 840.73706055 C837.91913713 855.81548677 837.91913713 855.81548677 832.9375 861.25 C817.48930126 870.45318223 799.62760369 870.55136377 782.1875 870.4375 C780.67941772 870.43243942 780.67941772 870.43243942 779.14086914 870.42727661 C737.3808912 870.22573072 696.32226164 862.50552759 656 852 C654.90719727 851.72140137 653.81439453 851.44280273 652.68847656 851.15576172 C594.52285828 836.24921109 539.04093375 813.97495421 485.22509766 787.58105469 C482.33450127 786.16398412 479.43932509 784.75680569 476.54296875 783.3515625 C464.82308676 777.6254519 453.45666404 771.3471747 442.16357422 764.82324219 C438.86769315 762.92374845 435.56086054 761.04420135 432.25390625 759.1640625 C413.25506252 748.30023175 395.06733204 736.33989069 377 724 C376.3128894 723.5313855 375.62577881 723.062771 374.91784668 722.57995605 C366.98594969 717.16649928 359.08632139 711.72571456 351.375 706 C350.18136841 705.11646851 350.18136841 705.11646851 348.96362305 704.21508789 C341.86898871 698.94207777 334.88983305 693.53735616 328 688 C327.3596582 687.4858252 326.71931641 686.97165039 326.05957031 686.44189453 C314.21413213 676.91229962 302.49472588 667.25528997 291.2421875 657.02734375 C289.28791576 655.26032801 287.30940263 653.53086471 285.3125 651.8125 C273.31630805 641.32590923 261.97252398 630.13518251 250.7265625 618.85693359 C248.47771206 616.60265829 246.22347552 614.35386624 243.96875 612.10546875 C242.51009548 610.6461543 241.05175073 609.18653015 239.59375 607.7265625 C238.60296448 606.73881332 238.60296448 606.73881332 237.59216309 605.73110962 C233.75038634 601.87016441 230.08870842 597.90135452 226.53512573 593.77323914 C224.29410683 591.18461572 221.95870904 588.69290835 219.625 586.1875 C215.3312462 581.53961458 211.2646816 576.75583652 207.296875 571.82421875 C205.27430677 569.33728537 203.20752397 566.89633224 201.11694336 564.46655273 C194.60134397 556.88034227 188.54631127 548.9770519 182.51953125 541 C181.15051763 539.19811061 179.76816092 537.40824597 178.375 535.625 C128.39446642 471.54739285 89.34497423 397.77713974 23 192 C22.82746704 191.21016724 22.65493408 190.42033447 22.47717285 189.60656738 C11.68512452 139.95810791 5.01707912 89.58256174 1.1875 38.9375 C1.09221008 37.70802139 1.09221008 37.70802139 0.99499512 36.45370483 C0.06802485 24.28729718 -0.13730605 12.19936191 0 0 Z " fill="#94D20D" transform="translate(1183,351)"/>
<path d="M0 0 C2.94757634 2.65530325 5.83150327 5.37242188 8.70703125 8.10546875 C9.65449219 8.97365234 9.65449219 8.97365234 10.62109375 9.859375 C40.24983353 37.87327825 58.27949213 80.08244475 59.68359375 120.46386719 C60.23812347 149.98267228 52.71195925 178.23243268 38.70703125 204.10546875 C38.14113281 205.15347656 37.57523438 206.20148438 36.9921875 207.28125 C34.54400031 211.63038254 31.9706839 215.79757484 29.01171875 219.81640625 C28.54813965 220.44659668 28.08456055 221.07678711 27.60693359 221.72607422 C26.69060212 222.956266 25.76161819 224.1771579 24.81884766 225.38720703 C22.4144005 228.48624681 22.4144005 228.48624681 21.67578125 232.2265625 C23.05202644 234.73403953 24.73681194 236.59171333 26.70703125 238.66796875 C64.47914898 279.53811506 86.83353471 330.91670438 84.70703125 387.10546875 C81.94266684 442.85348426 56.64726488 493.64647053 15.47265625 531.01513672 C3.24960724 541.80408758 -10.32473002 550.75727564 -24.29296875 559.10546875 C-25.23293701 559.66959473 -25.23293701 559.66959473 -26.19189453 560.24511719 C-52.57223075 575.82319208 -83.12423728 584.12854019 -113.29296875 588.10546875 C-114.44551147 588.26015625 -114.44551147 588.26015625 -115.62133789 588.41796875 C-171.68543345 595.00336854 -232.42779653 580.16742694 -278.29296875 547.10546875 C-279.12368896 546.51258057 -279.12368896 546.51258057 -279.97119141 545.90771484 C-294.10975192 535.75160773 -308.23051619 524.62374071 -319.29296875 511.10546875 C-320.17174861 510.07411104 -321.05066704 509.0428714 -321.9296875 508.01171875 C-344.51962899 481.09596361 -364.97125479 443.28465464 -365.7890625 407.41015625 C-365.07283439 404.0827973 -364.00362327 403.22009372 -361.29296875 401.10546875 C-357.90957566 399.81429409 -354.43085724 398.98450352 -350.91577148 398.12866211 C-349.85996384 397.85979691 -348.80415619 397.5909317 -347.71635437 397.31391907 C-344.22295639 396.42778838 -340.72493524 395.56157497 -337.2265625 394.6953125 C-334.79208824 394.08170153 -332.3579339 393.46681998 -329.92408752 392.85072327 C-324.16352364 391.39564224 -318.39995676 389.95291829 -312.63476759 388.51630551 C-305.47554843 386.73163397 -298.32075577 384.92948261 -291.16601562 383.12695312 C-283.84786501 381.28361936 -276.52941452 379.44161717 -269.20787048 377.61180115 C-268.08740326 377.33147034 -266.96693604 377.05113953 -265.81251526 376.76231384 C-263.74122006 376.24430695 -261.66970243 375.72718819 -259.59790039 375.21121216 C-253.9509707 373.79817951 -248.33812868 372.30166081 -242.74200535 370.69823551 C-239.05620539 369.80612157 -236.07106198 369.70067305 -232.29296875 370.10546875 C-228.59995572 373.03353214 -227.73124111 377.16521676 -226.29296875 381.48046875 C-216.90734732 408.09748444 -201.95029372 432.33572347 -175.79296875 444.85546875 C-157.93399385 452.61136642 -138.51433031 453.35935365 -120.1015625 447.00390625 C-108.86255573 442.55423562 -99.90758693 436.56423036 -91.29296875 428.10546875 C-90.59171875 427.42871094 -89.89046875 426.75195312 -89.16796875 426.0546875 C-79.87726602 416.4192126 -74.46475947 403.97182884 -71.29296875 391.10546875 C-71.1021875 390.35265625 -70.91140625 389.59984375 -70.71484375 388.82421875 C-67.32450359 366.97535993 -73.8473551 347.0004274 -86.23046875 329.10546875 C-96.5846687 315.68112812 -110.96501359 307.17266415 -127.29296875 303.10546875 C-128.00501465 302.92000488 -128.71706055 302.73454102 -129.45068359 302.54345703 C-140.25373786 300.14681665 -151.56781968 300.74679147 -162.57568359 300.72460938 C-165.38553565 300.71509896 -168.19429848 300.68138424 -171.00390625 300.64453125 C-171.86229095 300.64957672 -172.72067566 300.65462219 -173.60507202 300.65982056 C-174.41006134 300.64655731 -175.21505066 300.63329407 -176.04443359 300.61962891 C-177.09719986 300.61535385 -177.09719986 300.61535385 -178.17123413 300.61099243 C-181.5042431 299.81687099 -183.00099741 298.66506088 -185.29296875 296.10546875 C-186.02724262 293.06564692 -185.95572706 290.09282121 -185.90820312 286.97827148 C-185.91375214 286.05591705 -185.91930115 285.13356262 -185.92501831 284.18325806 C-185.93682874 281.13466434 -185.91252682 278.08755222 -185.88671875 275.0390625 C-185.88500811 272.92204354 -185.88507285 270.80502246 -185.88684082 268.68800354 C-185.88518683 264.25183848 -185.86647246 259.81617831 -185.83496094 255.38012695 C-185.7952591 249.68790172 -185.790918 243.99633732 -185.79842377 238.3039999 C-185.80148991 233.93315046 -185.78938599 229.56245019 -185.77229309 225.19163704 C-185.76525197 223.09243772 -185.7621399 220.9932215 -185.76298523 218.89401054 C-185.76119189 215.96345191 -185.73985051 213.03369235 -185.71289062 210.10327148 C-185.71582123 209.23202133 -185.71875183 208.36077118 -185.72177124 207.46311951 C-185.63755226 201.54402756 -185.63755226 201.54402756 -183.95484161 199.40240574 C-178.96773907 195.51043668 -169.99419734 197.07555101 -164.04296875 197.16796875 C-140.18984493 197.30443868 -119.77735948 194.60575331 -101.6171875 177.5859375 C-89.85374565 165.03167603 -86.67075839 150.07520024 -86.95703125 133.4609375 C-87.65955738 117.25929141 -95.09424579 102.84126427 -106.1015625 91.1015625 C-117.60419462 80.62412041 -132.18688823 75.57605695 -147.60546875 76.23046875 C-164.63386399 77.7487046 -180.74289933 84.16621572 -192.29296875 97.10546875 C-202.72969986 110.69219507 -207.24798055 127.68074074 -211.25244141 144.07202148 C-211.47722168 144.96091064 -211.70200195 145.8497998 -211.93359375 146.765625 C-212.22024902 147.95103882 -212.22024902 147.95103882 -212.51269531 149.16040039 C-213.29296875 151.10546875 -213.29296875 151.10546875 -216.29296875 153.10546875 C-221.93652056 153.56797656 -226.7779769 152.44793417 -232.16796875 150.99755859 C-233.46007767 150.66088669 -233.46007767 150.66088669 -234.77828979 150.31741333 C-237.61870702 149.57516614 -240.45576824 148.82084709 -243.29296875 148.06640625 C-245.29032998 147.54194189 -247.28789234 147.01824296 -249.28564453 146.49526978 C-254.55266823 145.11429786 -259.81694052 143.72310984 -265.08068848 142.32971191 C-270.35560115 140.93516251 -275.63295284 139.54991313 -280.91015625 138.1640625 C-286.88746519 136.5936723 -292.86451668 135.02234422 -298.83984375 133.44442749 C-299.75461487 133.20298319 -300.66938599 132.96153889 -301.61187744 132.71277809 C-303.41991894 132.23493542 -305.22766427 131.75597054 -307.03509521 131.27582359 C-311.8971164 129.98720419 -316.76540586 128.73151175 -321.64550781 127.51300049 C-322.69473419 127.24800562 -323.74396057 126.98301075 -324.82498169 126.70998573 C-326.84460773 126.20080446 -328.86609187 125.69891974 -330.88961792 125.20546532 C-331.80018951 124.97456514 -332.71076111 124.74366497 -333.64892578 124.50576782 C-334.45073273 124.30725534 -335.25253967 124.10874287 -336.0786438 123.90421486 C-338.58947385 122.99851412 -340.29123932 121.86223161 -342.29296875 120.10546875 C-344.04125702 115.55490023 -342.95626673 110.79562534 -342.23046875 106.10546875 C-342.09616455 105.23188721 -341.96186035 104.35830566 -341.82348633 103.45825195 C-337.17944137 75.33584045 -325.70763073 48.64542149 -308.29296875 26.10546875 C-307.63425781 25.22375 -306.97554687 24.34203125 -306.296875 23.43359375 C-291.54550204 4.45521919 -273.13040225 -11.03543891 -252.29296875 -22.89453125 C-251.65810547 -23.25643555 -251.02324219 -23.61833984 -250.36914062 -23.99121094 C-225.71450965 -37.90838232 -199.22788319 -44.9303391 -171.29296875 -48.89453125 C-170.56247314 -48.99910645 -169.83197754 -49.10368164 -169.0793457 -49.21142578 C-109.14435404 -56.46565558 -45.50850839 -40.3719852 0 0 Z " fill="#94D20D" transform="translate(3875.29296875,1193.89453125)"/>
</svg>
